
        <svg xmlns="http://www.w3.org/2000/svg" xmlns:xlink="http://www.w3.org/1999/xlink" version="1.1" width="3156.25" 
        height="1321.5883085361502" viewBox="0 0 3156.25 1321.5883085361502">
			<rect fill="#ffffff" width="3156.25" height="1321.5883085361502"/>
			<g transform="scale(7.8125) translate(10, 10)">
				<defs id="SvgjsDefs1048"></defs><g id="SvgjsG1049" featureKey="symbolGroupContainer" transform="matrix(0.5680287589700488,0,0,0.5680287589700488,0,17)" fill="#2a788e"><path xmlns="http://www.w3.org/2000/svg" d="M100.215 200.43c55.259 0 100.215-44.956 100.215-100.215S155.474 0 100.215 0 0 44.956 0 100.215 44.956 200.43 100.215 200.43zm0-190.43c49.745 0 90.215 40.47 90.215 90.215s-40.47 90.215-90.215 90.215C50.47 190.43 10 149.959 10 100.215S50.47 10 100.215 10z"></path></g><g id="SvgjsG1050" featureKey="PG4fjM-0" transform="matrix(-0.7820218658895027,0,0,-0.7820218658895027,96.10108434494512,113.53649827164688)" fill="#2a788e"><g xmlns="http://www.w3.org/2000/svg" transform="translate(0,-952.36218)"><path style="text-indent:0;text-transform:none;direction:ltr;block-progression:tb;baseline-shift:baseline;color:;enable-background:accumulate;" d="m 31.281047,958.32834 c -5.03494,0 -10.08166,1.89417 -13.90625,5.71875 -7.6492141,7.64922 -7.6492051,20.16329 0,27.8125 6.9321,6.93202 17.85362,7.56982 25.53125,1.93752 l 28.28125,28.28119 -9.28125,9.2813 a 3.0003,3.0003 0 1 0 4.21875,4.25 l 9.3125,-9.2813 5.65625,5.6563 -9.28125,9.2812 a 3.0052038,3.0052038 0 1 0 4.25,4.25 l 11.25,-11.25 a 3.0052038,3.0052038 0 0 0 0.375,-0.375 3.0003,3.0003 0 0 0 0.03125,-0.062 3.0052038,3.0052038 0 0 0 0.125,-0.1562 3.0003,3.0003 0 0 0 0.0625,-0.094 3.0052038,3.0052038 0 0 0 0.09375,-0.1562 3.0003,3.0003 0 0 0 -0.4375,-3.4688 3.0052038,3.0052038 0 0 0 -0.09375,-0.094 l 0,-0.031 a 3.0003,3.0003 0 0 0 -0.3125,-0.2812 l -9.1875,-9.1875 a 3.0003,3.0003 0 0 0 -0.71875,-0.7188 l -30.09375,-30.09371 c 5.60472,-7.67572 4.95283,-18.57842 -1.96875,-25.5 -3.8246,-3.8246 -8.87131,-5.71875 -13.90625,-5.71875 z m 0,5.96875 c 3.48636,-0.003 6.97809,1.32184 9.65625,4 5.35631,5.35631 5.35631,13.95619 0,19.3125 -5.35635,5.35632 -13.95618,5.35632 -19.3125,0 -5.35631,-5.35631 -5.35635,-13.95615 0,-19.3125 2.67816,-2.67815 6.16989,-3.99652 9.65625,-4 z" fill="#2a788e" fill-opacity="1" fill-rule="nonzero" stroke="none" marker="none" visibility="visible" display="inline" overflow="visible"></path></g></g><g id="SvgjsG1051" featureKey="jxYttZ-0" transform="matrix(7.212925594362525,0,0,7.212925594362525,126.78707268594201,-34.62204078930555)" fill="#28698b"><path d="M6.84 6.699999999999999 c-0.3 -0.14 -0.8 -0.32 -1.44 -0.06 c-0.98 0.44 -1.14 0.84 -1.14 2.48 l0 1 l2.58 0 l0 1.68 l-2.58 0 l0 8.2 l-2.06 0 l0 -8.2 l-1.2 0 l0 -1.68 l1.2 0 l0 -1 c0 -1.56 0 -1.92 0.6 -2.9 c0.64 -1.06 1.68 -1.42 2.86 -1.42 c0.54 0 0.92 0.14 1.18 0.3 l0 1.6 z M14.58 10.24 l-0.44 1.62 c-0.14 -0.08 -0.58 -0.22 -0.94 -0.22 c-1.7 0 -2.5 1.62 -2.5 3.62 l0 4.74 l-2.06 0 l0 -9.88 l2.06 0 l0 1.4 c0.24 -0.92 1.3 -1.58 2.48 -1.58 c0.54 0 1.12 0.14 1.4 0.3 z M18.14 10.12 l0 9.88 l-2.06 0 l0 -9.88 l2.06 0 z M18.240000000000002 6.5 c0 0.64 -0.5 1.14 -1.14 1.14 c-0.62 0 -1.12 -0.5 -1.12 -1.14 c0 -0.62 0.5 -1.12 1.12 -1.12 c0.64 0 1.14 0.5 1.14 1.12 z M28.340000000000003 10.12 l2.06 0 l0 10.04 c0 2.94 -2.3 5.32 -5.14 5.32 c-1.48 0 -2.82 -0.66 -3.76 -1.7 l1.42 -1.28 c0.56 0.8 1.4 1.3 2.34 1.3 c1.7 0 3.08 -1.64 3.08 -3.64 l0 -0.92 c-0.66 0.54 -1.88 0.94 -2.84 0.94 c-2.84 0 -4.94 -2.18 -4.94 -5.12 s2.1 -5.14 4.94 -5.14 c0.96 0 2.06 0.36 2.84 0.96 l0 -0.76 z M25.700000000000003 18.5 c1.12 0 2.1 -0.52 2.64 -1.58 c0.28 -0.54 0.44 -1.18 0.44 -1.86 s-0.16 -1.32 -0.44 -1.88 c-0.54 -1.06 -1.52 -1.56 -2.64 -1.56 c-1.7 0 -3.08 1.42 -3.08 3.44 c0 2 1.38 3.44 3.08 3.44 z M35.56 10.12 l0 9.88 l-2.06 0 l0 -9.88 l2.06 0 z M35.66 6.5 c0 0.64 -0.5 1.14 -1.14 1.14 c-0.62 0 -1.12 -0.5 -1.12 -1.14 c0 -0.62 0.5 -1.12 1.12 -1.12 c0.64 0 1.14 0.5 1.14 1.12 z"></path></g>
			</g>
		</svg>
	